<svg xmlns="http://www.w3.org/2000/svg" viewBox="0 0 32 32" fill="none">
  <defs>
    <linearGradient id="bg" x1="4" y1="2" x2="28" y2="30" gradientUnits="userSpaceOnUse">
      <stop offset="0%" stop-color="#3B82F6"/>
      <stop offset="50%" stop-color="#2563EB"/>
      <stop offset="100%" stop-color="#4F46E5"/>
    </linearGradient>
    <linearGradient id="glow" x1="16" y1="6" x2="16" y2="28" gradientUnits="userSpaceOnUse">
      <stop offset="0%" stop-color="#93C5FD" stop-opacity="0.6"/>
      <stop offset="100%" stop-color="#6366F1" stop-opacity="0"/>
    </linearGradient>
  </defs>
  <!-- Shield shape - slightly angular/modern -->
  <path d="M16 1.5L3.5 6.5v8.5c0 8.2 5.4 15.5 12.5 17 7.1-1.5 12.5-8.8 12.5-17V6.5L16 1.5z" fill="url(#bg)"/>
  <!-- Inner glow stripe -->
  <path d="M16 3.5L5.5 7.5v7.5c0 7 4.5 13.3 10.5 14.8V3.5z" fill="url(#glow)"/>
  <!-- Stylized "A" letterform integrated into shield -->
  <path d="M16 7L10.5 22h2.7l1-3h3.6l1 3h2.7L16 7zm0 5.2l1.3 4.3h-2.6L16 12.2z" fill="white"/>
  <!-- Digital eye/awareness arc above the A -->
  <path d="M9.5 10.5Q12.5 7.5 16 7.5Q19.5 7.5 22.5 10.5" stroke="white" stroke-width="1.2" stroke-linecap="round" fill="none" opacity="0.5"/>
  <!-- Small dot = pupil of awareness -->
  <circle cx="16" cy="9" r="1" fill="white" opacity="0.7"/>
</svg>
